<?xml version="1.0" standalone="no"?>
<!DOCTYPE svg PUBLIC "-//W3C//DTD SVG 20010904//EN"
 "http://www.w3.org/TR/2001/REC-SVG-20010904/DTD/svg10.dtd">
<svg version="1.0" xmlns="http://www.w3.org/2000/svg"
 width="339.000000pt" height="339.000000pt" viewBox="0 0 339.000000 339.000000"
 preserveAspectRatio="xMidYMid meet">
<metadata>
Created by potrace 1.14, written by Peter Selinger 2001-2017
</metadata>
<g transform="translate(0.000000,339.000000) scale(0.100000,-0.100000)"
fill="#000000" stroke="none">
<path d="M482 2608 c-9 -9 -12 -245 -12 -1002 l0 -989 24 -51 c32 -66 70 -106
138 -143 31 -17 90 -18 1063 -18 l1030 0 47 23 c56 28 91 61 126 122 l27 45 0
669 0 669 -21 7 c-50 19 -49 38 -54 -669 l-5 -659 -30 -44 c-89 -128 -279
-110 -343 32 -14 31 -16 147 -17 1005 0 534 -4 980 -9 993 l-7 22 -973 0
c-743 0 -975 -3 -984 -12z m1883 -71 c6 -2 10 -331 10 -963 1 -951 1 -959 22
-1004 11 -25 30 -55 42 -67 l22 -23 -298 0 c-164 -1 -559 -1 -877 -1 l-580 0
-45 24 c-26 13 -59 41 -76 66 l-30 43 -3 964 -2 963 152 3 c201 4 1650 -1
1663 -5z"/>
<path d="M710 2380 c-29 -4 -36 -10 -38 -32 -2 -18 3 -30 15 -36 11 -5 329 -9
781 -9 620 0 766 3 777 13 14 15 9 50 -8 61 -12 7 -1475 10 -1527 3z"/>
<path d="M684 2137 c-17 -10 -19 -53 -1 -64 6 -4 356 -8 777 -8 716 0 766 1
782 17 22 22 22 32 2 49 -14 11 -150 14 -781 14 -420 0 -771 -4 -779 -8z"/>
<path d="M681 1897 c-14 -14 -14 -54 1 -63 8 -5 1379 -10 1530 -5 37 1 56 36
34 60 -15 17 -63 18 -785 18 -535 0 -773 -3 -780 -10z"/>
<path d="M682 1658 c-17 -17 -15 -55 4 -62 9 -3 362 -6 784 -6 723 0 770 1
778 18 10 19 5 43 -12 54 -6 4 -355 8 -776 8 -583 0 -769 -3 -778 -12z"/>
<path d="M683 1423 c-16 -6 -17 -45 -1 -61 9 -9 196 -12 779 -12 684 0 769 2
783 16 19 18 19 20 6 45 -10 19 -29 19 -783 18 -425 0 -778 -3 -784 -6z"/>
<path d="M704 1190 c-22 -4 -30 -11 -32 -32 -2 -18 3 -30 15 -36 18 -10 1511
-15 1544 -6 22 6 30 39 14 60 -11 16 -68 17 -762 18 -412 1 -762 -1 -779 -4z"/>
<path d="M684 947 c-20 -11 -18 -55 4 -65 13 -6 1462 -9 1543 -3 22 1 30 36
14 58 -13 17 -55 18 -780 18 -421 0 -773 -4 -781 -8z"/>
<path d="M686 708 c-19 -10 -21 -53 -4 -64 6 -4 358 -7 781 -7 714 0 771 1
782 17 12 16 10 54 -4 58 -26 7 -1543 3 -1555 -4z"/>
<path d="M2625 1933 c-13 -13 -15 -85 -13 -545 3 -523 3 -531 24 -544 17 -12
23 -12 38 -1 17 12 18 47 18 546 0 370 -3 536 -11 544 -17 17 -40 17 -56 0z"/>
</g>
</svg>
